<?xml version="1.0" standalone="no"?>
<!DOCTYPE svg PUBLIC "-//W3C//DTD SVG 20010904//EN"
 "http://www.w3.org/TR/2001/REC-SVG-20010904/DTD/svg10.dtd">
<svg version="1.0" xmlns="http://www.w3.org/2000/svg"
 width="504.000000pt" height="504.000000pt" viewBox="0 0 504.000000 504.000000"
 preserveAspectRatio="xMidYMid meet">
<metadata>
Created by potrace 1.14, written by Peter Selinger 2001-2017
</metadata>
<g transform="translate(0.000000,504.000000) scale(0.100000,-0.100000)"
fill="#000000" stroke="none">
<path d="M2350 4973 c-98 -7 -258 -25 -294 -33 -251 -56 -331 -80 -496 -145
-453 -180 -863 -519 -1135 -935 -27 -41 -57 -87 -67 -102 -9 -15 -49 -91 -87
-170 -188 -389 -263 -775 -240 -1228 17 -322 96 -620 245 -927 323 -663 936
-1149 1657 -1314 188 -43 345 -59 565 -59 439 0 809 97 1204 316 55 30 92 44
117 44 38 -1 131 -19 354 -69 152 -34 259 -40 325 -17 143 51 203 172 172 349
-11 67 -61 293 -95 432 -14 58 -20 65 -167 212 -84 84 -154 150 -156 148 -2
-2 3 -46 13 -97 21 -116 81 -428 94 -488 25 -117 53 -291 47 -297 -7 -7 -70 3
-326 54 -100 19 -212 35 -262 36 l-86 2 -179 -92 c-98 -50 -196 -98 -218 -106
-22 -8 -78 -28 -125 -45 -543 -195 -1172 -154 -1711 113 -328 162 -629 427
-834 735 -56 85 -78 122 -145 250 -152 288 -241 698 -227 1045 13 305 62 532
171 785 42 97 114 240 138 274 5 6 31 47 60 91 28 44 63 94 77 111 14 17 35
42 45 55 90 111 239 258 350 344 22 17 51 39 65 51 14 12 58 41 96 66 268 170
590 290 885 329 154 20 442 23 575 4 592 -80 1103 -370 1466 -831 200 -255
348 -569 414 -884 43 -204 58 -509 35 -712 -18 -152 -67 -370 -103 -456 l-13
-32 -82 72 c-45 40 -82 77 -82 83 0 6 7 35 15 65 83 292 88 656 14 960 -136
559 -527 1054 -1039 1315 -120 61 -298 126 -420 154 -52 12 -111 26 -130 31
-19 5 -98 14 -175 20 -258 22 -559 -14 -800 -95 -116 -39 -320 -136 -420 -200
-468 -299 -794 -783 -890 -1325 -74 -410 -13 -832 174 -1210 202 -408 508
-712 912 -904 74 -35 143 -66 154 -69 11 -3 45 -14 75 -25 182 -66 338 -93
591 -99 258 -7 422 18 663 99 189 64 289 115 516 263 85 56 192 125 237 154
49 32 80 58 76 64 -15 24 -371 454 -464 561 -19 23 -64 77 -100 121 -35 44
-116 142 -179 219 -63 76 -115 143 -115 149 0 6 14 12 30 13 175 11 195 14
252 43 101 52 171 132 209 238 23 67 24 74 24 413 0 192 -5 364 -10 388 -29
123 -136 248 -253 295 l-67 27 -910 0 c-500 0 -910 -3 -912 -7 -2 -5 -2 -488
0 -1076 l3 -1067 195 0 194 0 0 369 c0 327 2 370 16 375 9 3 166 6 350 6 l334
0 24 -27 c13 -16 74 -89 135 -163 62 -74 135 -162 164 -194 29 -33 59 -70 67
-82 14 -20 66 -83 240 -289 159 -188 253 -302 261 -317 8 -15 -3 -25 -68 -63
-214 -125 -390 -188 -641 -230 -126 -21 -423 -16 -542 9 -375 78 -642 218
-890 466 -178 177 -275 319 -369 538 -50 117 -99 289 -121 427 -15 90 -15 378
-1 475 36 238 129 491 249 675 138 211 293 369 498 505 193 128 383 207 619
256 163 34 518 29 686 -10 433 -101 760 -320 1040 -696 14 -19 46 -69 70 -110
140 -237 199 -408 240 -700 17 -117 5 -368 -21 -485 -12 -49 -23 -99 -25 -109
-8 -33 -37 -119 -58 -169 l-20 -48 79 -76 c43 -42 167 -163 276 -270 108 -106
200 -193 205 -193 18 0 125 238 182 405 90 265 125 483 125 785 1 241 -10 343
-61 575 -21 95 -94 315 -132 398 -17 37 -31 71 -31 75 0 13 -129 241 -186 329
-165 255 -426 511 -708 697 -414 273 -985 423 -1476 389z m850 -2073 l0 -310
-37 0 c-85 0 -962 0 -1135 0 l-188 0 0 310 0 310 680 0 680 0 0 -310z"/>
</g>
</svg>
